<?xml version="1.0" encoding="utf-8"?>
<!-- Generator: Adobe Illustrator 23.0.0, SVG Export Plug-In . SVG Version: 6.00 Build 0)  -->
<svg version="1.1" id="Layer_1" xmlns="http://www.w3.org/2000/svg" xmlns:xlink="http://www.w3.org/1999/xlink" x="0px" y="0px"
	 viewBox="0 0 38.2 26.9" style="enable-background:new 0 0 38.2 26.9;" xml:space="preserve">
<style type="text/css">
	.st0{fill:#FFFFFF;}
	.st1{fill:#04131C;}
</style>
<g id="Group_62619_1_" transform="translate(182.597 4.614)">
	<path id="Path_50138_1_" class="st0" d="M-146.1,0.1c-0.4-1.6-1.7-2.8-3.3-3.3c-2.9-0.8-14.4-0.8-14.4-0.8s-11.5,0-14.4,0.8
		c-1.6,0.4-2.8,1.7-3.3,3.3c-0.8,2.9-0.8,8.9-0.8,8.9s0,6,0.8,8.9c0.4,1.6,1.7,2.8,3.3,3.3c2.9,0.8,14.4,0.8,14.4,0.8
		s11.5,0,14.4-0.8c1.6-0.4,2.8-1.7,3.3-3.3c0.8-2.9,0.8-8.9,0.8-8.9S-145.4,3-146.1,0.1z"/>
	<path id="Path_50139_1_" class="st1" d="M-167.6,15V3.9l9.8,5.6L-167.6,15z"/>
</g>
</svg>
